<svg preserveAspectRatio="none" width="100%" height="100%" overflow="visible" style="display: block;" viewBox="0 0 59.9994 60" fill="none" xmlns="http://www.w3.org/2000/svg">
<g id="Vector">
<path d="M29.9997 0C46.5678 0.000351026 59.9994 13.4317 59.9994 30C59.9992 37.4903 57.2525 44.3383 52.7133 49.5952L46.0117 41.0376C48.1779 37.9011 49.451 34.1002 49.4512 30C49.4512 19.257 40.7425 10.5472 29.9997 10.5469C19.2567 10.5471 10.5468 19.2569 10.5468 30C10.5471 40.7428 19.257 49.4514 29.9997 49.4517C33.3201 49.4516 36.4451 48.6173 39.1798 47.1504L45.7466 55.5366C41.1692 58.3654 35.7757 59.9999 29.9997 60C13.4317 59.9998 0.000353003 46.5681 0 30C0 13.4316 13.4315 0.000226798 29.9997 0Z" fill="#282828"/>
<path d="M26.4475 59.7891C24.2644 59.5314 22.1536 59.0395 20.1399 58.3389L25.6345 54.3018L26.4475 59.7891Z" fill="white" fill-opacity="0.12"/>
<path d="M36.026 59.3892C35.4491 59.507 34.8669 59.6111 34.2785 59.6953L35.8956 58.5073L36.026 59.3892Z" fill="white" fill-opacity="0.12"/>
<path d="M44.938 54.5054L45.1431 55.8926C42.7322 57.3059 40.1091 58.3958 37.3297 59.0947L35.8956 58.5073L43.6241 52.8267L44.938 54.5054Z" fill="white" fill-opacity="0.12"/>
<path d="M35.8956 58.5073L25.6345 54.3018L30.8991 50.4316C32.1735 50.3764 33.4177 50.2058 34.6212 49.9277L35.8956 58.5073Z" fill="white" fill-opacity="0.12"/>
<path d="M16.3563 56.7246C14.4663 55.7577 12.6939 54.5943 11.0624 53.2646L15.3748 50.0962L16.3563 56.7246Z" fill="white" fill-opacity="0.12"/>
<path d="M19.1351 47.3306C20.9144 48.4482 22.8775 49.2992 24.9695 49.8281L25.6345 54.3018L15.3748 50.0962L19.1351 47.3306Z" fill="white" fill-opacity="0.12"/>
<path d="M42.357 51.208L37.2667 49.1206C38.1438 48.787 38.9922 48.3962 39.8067 47.9502L42.357 51.208Z" fill="white" fill-opacity="0.12"/>
<path d="M12.4452 40.5015C13.0079 41.4399 13.644 42.3288 14.3451 43.1616L15.3748 50.0962L5.11372 45.8906L12.4452 40.5015Z" fill="white" fill-opacity="0.12"/>
<path d="M53.6713 48.4233C53.3612 48.8213 53.0428 49.2137 52.7133 49.5952L50.9995 47.4053L53.2729 45.7368L53.6713 48.4233Z" fill="white" fill-opacity="0.12"/>
<path d="M5.27631 46.9937C5.08992 46.723 4.9061 46.4503 4.72847 46.1733L5.11372 45.8906L5.27631 46.9937Z" fill="white" fill-opacity="0.12"/>
<path d="M57.0639 42.9492C56.4775 44.172 55.812 45.3494 55.0717 46.4736L53.2729 45.7368L57.0639 42.9492Z" fill="white" fill-opacity="0.12"/>
<path d="M5.11372 45.8906L4.35933 45.5801C2.80607 43.0294 1.62378 40.2286 0.884757 37.2524L3.54196 35.2998L5.11372 45.8906Z" fill="white" fill-opacity="0.12"/>
<path d="M53.2729 45.7368L47.9995 43.5747L46.6592 41.8623C47.7281 40.3639 48.6004 38.7162 49.2373 36.9551L51.7026 35.146L53.2729 45.7368Z" fill="white" fill-opacity="0.12"/>
<path d="M9.56387 30.873C9.67826 33.593 10.3236 36.1753 11.3993 38.5195L3.54196 35.2998L9.56387 30.873Z" fill="white" fill-opacity="0.12"/>
<path d="M59.9994 30C59.9993 32.8044 59.6135 35.5187 58.8934 38.0933L51.7026 35.146L59.9818 29.0596C59.9914 29.3717 59.9994 29.6856 59.9994 30Z" fill="white" fill-opacity="0.12"/>
<path d="M3.54196 35.2998L0.259275 33.9536C0.088901 32.6599 4.36684e-05 31.3403 0 30C2.97726e-05 28.6285 0.0942064 27.2782 0.272458 25.9556L1.97019 24.709L3.54196 35.2998Z" fill="white" fill-opacity="0.12"/>
<path d="M51.7026 35.146L49.9682 34.4341C50.284 33.0058 50.4531 31.5218 50.4531 29.9985C50.4531 28.2046 50.2204 26.465 49.7866 24.8071L50.1308 24.5552L51.7026 35.146Z" fill="white" fill-opacity="0.12"/>
<path d="M57.8651 18.8701C59.0751 21.8966 59.8054 25.1658 59.9642 28.585L50.1308 24.5552L57.8651 18.8701Z" fill="white" fill-opacity="0.12"/>
<path d="M11.1957 21.936C10.4016 23.7855 9.87126 25.7754 9.65469 27.8584L1.97019 24.709L10.6596 18.3237L11.1957 21.936Z" fill="white" fill-opacity="0.12"/>
<path d="M1.97019 24.709L0.574213 24.1362C0.792283 23.0358 1.0699 21.9569 1.40477 20.9033L1.97019 24.709Z" fill="white" fill-opacity="0.12"/>
<path d="M50.1308 24.5552L49.6665 24.3633C48.8089 21.3646 47.2829 18.6487 45.2617 16.3843L48.5591 13.9644L50.1308 24.5552Z" fill="white" fill-opacity="0.12"/>
<path d="M19.428 12.4834C16.6847 14.1426 14.3632 16.4289 12.6605 19.1426L10.6596 18.3237L19.3489 11.9385L19.428 12.4834Z" fill="white" fill-opacity="0.12"/>
<path d="M10.6596 18.3237L3.73971 15.4863C5.19704 12.8552 7.03783 10.4662 9.18741 8.39502L10.6596 18.3237Z" fill="white" fill-opacity="0.12"/>
<path d="M52.9785 10.7153C54.7088 12.7749 56.1682 15.0696 57.2997 17.5459L48.5591 13.9644L52.9785 10.7153Z" fill="white" fill-opacity="0.12"/>
<path d="M45.6148 4.37988C46.1897 4.73108 46.7522 5.1008 47.3008 5.48877L48.5591 13.9644L38.298 9.75879L45.6148 4.37988Z" fill="white" fill-opacity="0.12"/>
<path d="M28.6359 9.59033C25.492 9.79715 22.542 10.7131 19.9451 12.1816L19.3489 11.9385L28.0383 5.55322L28.6359 9.59033Z" fill="white" fill-opacity="0.12"/>
<path d="M19.3489 11.9385L9.64736 7.96143C12.0773 5.7163 14.8789 3.86815 17.95 2.51953L19.3489 11.9385Z" fill="white" fill-opacity="0.12"/>
<path d="M38.5411 11.4097C38.0193 11.1695 37.4859 10.9499 36.9415 10.7534L38.298 9.75879L38.5411 11.4097Z" fill="white" fill-opacity="0.12"/>
<path d="M35.0211 0.42041C35.6785 0.531219 36.3287 0.663081 36.9708 0.815918L38.298 9.75879L28.0383 5.55322L35.0211 0.42041Z" fill="white" fill-opacity="0.12"/>
<path d="M28.0383 5.55322L19.2933 1.96875C21.7962 1.01215 24.4596 0.381096 27.2326 0.127441L28.0383 5.55322Z" fill="white" fill-opacity="0.12"/>
<path d="M52.7133 49.5952C50.7124 51.9125 48.3632 53.9196 45.7466 55.5366L39.1798 47.1504C41.916 45.6826 44.2566 43.5791 46.0117 41.0376L52.7133 49.5952Z" fill="var(--fill-0, white)"/>
<path d="M47.9995 29.9998C47.9995 39.9409 39.9407 47.9998 29.9997 47.9998C20.0587 47.9998 11.9999 39.9409 11.9999 29.9998C11.9999 20.0587 20.0587 11.9998 29.9997 11.9998C39.9407 11.9998 47.9995 20.0587 47.9995 29.9998Z" fill="#FF0000"/>
<path d="M38.18 29.3173L25.9076 36.8171V21.8174L38.18 29.3173Z" fill="var(--fill-0, white)"/>
<path d="M44.9982 29.9986C44.9982 21.7146 38.2827 14.999 29.9987 14.999C21.7147 14.999 14.9992 21.7146 14.9992 29.9986C14.9992 38.2827 21.7147 44.9983 29.9987 44.9983V50.4527C18.7023 50.4527 9.54482 41.2951 9.54482 29.9986C9.54482 18.7022 18.7023 9.54456 29.9987 9.54456C41.2951 9.54456 50.4531 18.7021 50.4531 29.9985C50.4531 41.295 41.2951 50.4527 29.9987 50.4527V44.9983C38.2827 44.9983 44.9982 38.2827 44.9982 29.9986Z" fill="var(--fill-0, white)"/>
</g>
</svg>
