<svg preserveAspectRatio="none" width="100%" height="100%" overflow="visible" style="display: block;" viewBox="0 0 181.001 46.4108" fill="none" xmlns="http://www.w3.org/2000/svg">
<g id="Vector">
<path d="M131.343 25.957H148.642V30.5369H131.343V25.957Z" fill="var(--fill-0, #1A1A1A)"/>
<path fill-rule="evenodd" clip-rule="evenodd" d="M16.4712 13.4156C25.568 13.4156 32.9424 20.7207 32.9424 29.7319V46.0482H27.129V42.1726C24.2564 44.5899 20.5357 46.0482 16.4712 46.0482C7.37441 46.0482 0 38.7432 0 29.7319C0 20.7207 7.37441 13.4156 16.4712 13.4156ZM16.4712 40.2895C22.3574 40.2895 27.129 35.5627 27.129 29.7319C27.129 23.9011 22.3574 19.1743 16.4712 19.1743C10.585 19.1743 5.81336 23.9011 5.81336 29.7319C5.81336 35.5627 10.585 40.2895 16.4712 40.2895Z" fill="var(--fill-0, #1A1A1A)"/>
<path fill-rule="evenodd" clip-rule="evenodd" d="M102.25 2.87801C102.25 1.31136 103.653 0 105.245 0C106.836 0 108.239 1.31136 108.239 2.87801V46.0482H102.25V42.3431C99.4019 44.6577 95.75 46.0482 91.7681 46.0482C82.6713 46.0482 75.2969 38.791 75.2969 29.8387C75.2969 20.8864 81.2864 13.4307 91.7681 13.4307C95.8555 13.4307 99.3706 14.8423 102.25 17.2681V2.87801ZM102.474 28.6131V28.623H102.476C102.522 29.0219 102.546 29.4276 102.546 29.8387C102.546 35.6964 97.7203 40.2922 91.7681 40.2922C85.8159 40.2922 80.9906 35.6964 80.9906 29.8387C80.9906 23.9811 85.8159 19.1868 91.7681 19.1868C97.2991 19.1868 101.857 23.3328 102.474 28.6131Z" fill="var(--fill-0, #1A1A1A)"/>
<path d="M124.167 2.90068C124.167 4.50268 122.871 5.80135 121.271 5.80135C119.672 5.80135 118.375 4.50268 118.375 2.90068C118.375 1.29868 119.672 0 121.271 0C122.871 0 124.167 1.29868 124.167 2.90068Z" fill="var(--fill-0, #1A1A1A)"/>
<path fill-rule="evenodd" clip-rule="evenodd" d="M121.271 7.61427C119.672 7.61427 118.375 8.90483 118.375 10.4968V46.0482H124.167V10.4968C124.167 8.90483 122.871 7.61427 121.271 7.61427Z" fill="var(--fill-0, #1A1A1A)"/>
<path fill-rule="evenodd" clip-rule="evenodd" d="M70.9529 30.0945C70.9529 21.0833 63.5785 13.7782 54.4817 13.7782C45.3849 13.7782 38.0105 21.0833 38.0105 30.0945C38.0105 39.1058 45.3849 46.4108 54.4817 46.4108C59.5344 46.4108 64.3681 45.9309 68.0462 41.6119C69.0151 40.4742 69.3612 38.1613 68.0462 37.2929C66.7312 36.4245 65.3363 36.618 64.1706 37.7728C61.2639 40.6521 56.6031 40.7681 54.4817 40.6521C47.8378 40.6521 45.1003 35.8495 44.7927 32.9739H68.0462C69.984 32.9739 70.9529 31.0543 70.9529 30.0945ZM54.4817 19.5369C51.5596 19.3771 45.9 20.89 44.7927 28.175H64.1706C63.863 25.2993 61.1255 19.5369 54.4817 19.5369Z" fill="var(--fill-0, #1A1A1A)"/>
<path fill-rule="evenodd" clip-rule="evenodd" d="M16.4712 13.4156C25.568 13.4156 32.9424 20.7207 32.9424 29.7319V46.0482H27.129V42.1726C24.2564 44.5899 20.5357 46.0482 16.4712 46.0482C7.37441 46.0482 0 38.7432 0 29.7319C0 20.7207 7.37441 13.4156 16.4712 13.4156ZM16.4712 40.2895C22.3574 40.2895 27.129 35.5627 27.129 29.7319C27.129 23.9011 22.3574 19.1743 16.4712 19.1743C10.585 19.1743 5.81336 23.9011 5.81336 29.7319C5.81336 35.5627 10.585 40.2895 16.4712 40.2895Z" fill="var(--fill-0, #1A1A1A)"/>
<path fill-rule="evenodd" clip-rule="evenodd" d="M102.25 2.87801C102.25 1.31136 103.653 0 105.245 0C106.836 0 108.239 1.31136 108.239 2.87801V46.0482H102.25V42.3431C99.4019 44.6577 95.75 46.0482 91.7681 46.0482C82.6713 46.0482 75.2969 38.791 75.2969 29.8387C75.2969 20.8864 81.2864 13.4307 91.7681 13.4307C95.8555 13.4307 99.3706 14.8423 102.25 17.2681V2.87801ZM102.474 28.6131V28.623H102.476C102.522 29.0219 102.546 29.4276 102.546 29.8387C102.546 35.6964 97.7203 40.2922 91.7681 40.2922C85.8159 40.2922 80.9906 35.6964 80.9906 29.8387C80.9906 23.9811 85.8159 19.1868 91.7681 19.1868C97.2991 19.1868 101.857 23.3328 102.474 28.6131Z" fill="var(--fill-0, #1A1A1A)"/>
<path d="M124.167 2.90068C124.167 4.50268 122.871 5.80135 121.271 5.80135C119.672 5.80135 118.375 4.50268 118.375 2.90068C118.375 1.29868 119.672 0 121.271 0C122.871 0 124.167 1.29868 124.167 2.90068Z" fill="#1A1A1A"/>
<path fill-rule="evenodd" clip-rule="evenodd" d="M121.271 7.61427C119.672 7.61427 118.375 8.90483 118.375 10.4968V46.0482H124.167V10.4968C124.167 8.90483 122.871 7.61427 121.271 7.61427Z" fill="var(--fill-0, #1A1A1A)"/>
<path fill-rule="evenodd" clip-rule="evenodd" d="M70.9529 30.0945C70.9529 21.0833 63.5785 13.7782 54.4817 13.7782C45.3849 13.7782 38.0105 21.0833 38.0105 30.0945C38.0105 39.1058 45.3849 46.4108 54.4817 46.4108C59.5344 46.4108 64.3681 45.9309 68.0462 41.6119C69.0151 40.4742 69.3612 38.1613 68.0462 37.2929C66.7312 36.4245 65.3363 36.618 64.1706 37.7728C61.2639 40.6521 56.6031 40.7681 54.4817 40.6521C47.8378 40.6521 45.1003 35.8495 44.7927 32.9739H68.0462C69.984 32.9739 70.9529 31.0543 70.9529 30.0945ZM54.4817 19.5369C51.5596 19.3771 45.9 20.89 44.7927 28.175H64.1706C63.863 25.2993 61.1255 19.5369 54.4817 19.5369Z" fill="var(--fill-0, #1A1A1A)"/>
<path d="M175.133 10.087C175.728 8.53482 177.495 7.77041 179.047 8.36741C180.598 8.96445 181.399 10.7166 180.803 12.2688L168.581 44.1246C168.113 45.3438 166.931 46.0794 165.686 46.0472C164.442 46.0798 163.259 45.3441 162.791 44.1246L150.568 12.2688C149.973 10.7166 150.773 8.96447 152.325 8.36741C153.877 7.77041 155.643 8.53483 156.239 10.087L165.685 34.7046L175.133 10.087Z" fill="var(--fill-0, #1A1A1A)"/>
</g>
</svg>
