<svg preserveAspectRatio="none" width="100%" height="100%" overflow="visible" style="display: block;" viewBox="0 0 18 18" fill="none" xmlns="http://www.w3.org/2000/svg">
<g id="Vector">
<path d="M8.091 0.376581C8.59311 -0.125527 9.40699 -0.125527 9.90909 0.376581C10.4112 0.878689 10.4112 1.69257 9.90909 2.19468L3.10381 9L9.90909 15.8053C10.4112 16.3074 10.4112 17.1213 9.90909 17.6234C9.40699 18.1255 8.59311 18.1255 8.091 17.6234L0.376676 9.90905C0.135557 9.66793 0 9.341 0 9C0 8.659 0.135557 8.33207 0.376676 8.09095L8.091 0.376581Z" fill="var(--fill-0, #999FA5)"/>
<path d="M15.8053 0.376581C16.3074 -0.125527 17.1213 -0.125527 17.6234 0.376581C18.1255 0.878689 18.1255 1.69257 17.6234 2.19468L10.8181 9L17.6234 15.8053C18.1255 16.3074 18.1255 17.1213 17.6234 17.6234C17.1213 18.1255 16.3074 18.1255 15.8053 17.6234L8.091 9.90905C7.84988 9.66793 7.71433 9.341 7.71433 9C7.71433 8.659 7.84988 8.33207 8.091 8.09095L15.8053 0.376581Z" fill="var(--fill-0, #999FA5)"/>
</g>
</svg>
