<svg preserveAspectRatio="none" width="100%" height="100%" overflow="visible" style="display: block;" viewBox="0 0 16 18" fill="none" xmlns="http://www.w3.org/2000/svg">
<path id="Vector" d="M0.871094 9V15.4854C0.871094 16.3927 1.60732 17.1289 2.51465 17.1289H13.4854C14.3927 17.1289 15.1289 16.3927 15.1289 15.4854V9H15.5V15.4854C15.5 16.5978 14.5978 17.5 13.4854 17.5H2.51465C1.40219 17.5 0.5 16.5978 0.5 15.4854V9H0.871094ZM15.5 7.5V8H15.1289V7.5H15.5ZM14.1289 7.5V8H1.87109V7.5H14.1289ZM0.871094 7.5V8H0.5V7.5H0.871094ZM13.4854 2.5C14.5978 2.5 15.5 3.40219 15.5 4.51465V6.5H15.1289V4.51465C15.1289 3.60732 14.3927 2.87109 13.4854 2.87109H13V2.5H13.4854ZM2.51465 2.5H3V2.87109H2.51465C1.60732 2.87109 0.871094 3.60732 0.871094 4.51465V6.5H0.5V4.51465L0.510742 4.30859C0.613792 3.29277 1.47164 2.5 2.51465 2.5ZM12 3.87109V4.5H11.5V3.87109H12ZM4.5 3.87109V4.5H4V3.87109H4.5ZM12 2.5V2.87109H11.5V2.5H12ZM10.5 2.5V2.87109H5.5V2.5H10.5ZM4.5 2.5V2.87109H4V2.5H4.5ZM12 0.5V1.5H11.5V0.5H12ZM4.5 0.5V1.5H4V0.5H4.5Z" fill="var(--fill-0, #1A1A1A)" stroke="var(--stroke-0, #1A1A1A)"/>
</svg>
