<svg preserveAspectRatio="none" width="100%" height="100%" overflow="visible" style="display: block;" viewBox="0 0 11.8672 11.867" fill="none" xmlns="http://www.w3.org/2000/svg">
<g id="Vector">
<path d="M0 10.0818V7.71137C0 7.38 0.26889 7.11111 0.60026 7.11111C0.931631 7.11111 1.20052 7.38 1.20052 7.71137V10.0818C1.20054 10.2369 1.26209 10.3855 1.37174 10.4952C1.48142 10.6049 1.63006 10.667 1.78516 10.6671H10.082C10.2371 10.667 10.3858 10.6049 10.4954 10.4952C10.6051 10.3855 10.6666 10.2369 10.6667 10.0818V7.71137C10.6667 7.38 10.9356 7.11111 11.2669 7.11111C11.5983 7.11111 11.8672 7.38 11.8672 7.71137V10.0818C11.8672 10.5552 11.6785 11.0094 11.3438 11.3442C11.0091 11.6788 10.5553 11.8669 10.082 11.867H1.78516C1.3119 11.8669 0.858135 11.6788 0.523438 11.3442C0.188667 11.0094 1.91489e-05 10.5552 0 10.0818Z" fill="var(--fill-0, #1A1A1A)"/>
<path d="M5.33392 0.60026C5.33392 0.268918 5.6022 4.54228e-05 5.93353 0C6.2649 5.96046e-07 6.53379 0.26889 6.53379 0.60026V6.26237L8.4726 4.32422C8.70692 4.09001 9.08662 4.08994 9.3209 4.32422C9.55511 4.5585 9.55508 4.93823 9.3209 5.17253L6.35801 8.13542C6.24549 8.24794 6.09266 8.3112 5.93353 8.3112C5.77443 8.31118 5.62156 8.24792 5.50905 8.13542L2.54616 5.17253C2.31208 4.93824 2.31205 4.55848 2.54616 4.32422C2.78048 4.0899 3.16081 4.0899 3.39512 4.32422L5.33392 6.26302V0.60026Z" fill="var(--fill-0, #1A1A1A)"/>
</g>
</svg>
