<svg preserveAspectRatio="none" width="100%" height="100%" overflow="visible" style="display: block;" viewBox="0 0 18 18" fill="none" xmlns="http://www.w3.org/2000/svg">
<g id="Vector">
<path d="M9.909 0.376581C9.40689 -0.125527 8.59301 -0.125527 8.09091 0.376581C7.5888 0.878689 7.5888 1.69257 8.09091 2.19468L14.8962 9L8.09091 15.8053C7.5888 16.3074 7.5888 17.1213 8.09091 17.6234C8.59301 18.1255 9.40689 18.1255 9.909 17.6234L17.6233 9.90905C17.8644 9.66793 18 9.341 18 9C18 8.659 17.8644 8.33207 17.6233 8.09095L9.909 0.376581Z" fill="var(--fill-0, #999FA5)"/>
<path d="M2.19467 0.376581C1.69256 -0.125527 0.878685 -0.125527 0.376579 0.376581C-0.125526 0.878689 -0.125526 1.69257 0.376579 2.19468L7.18186 9L0.376579 15.8053C-0.125526 16.3074 -0.125526 17.1213 0.376579 17.6234C0.878685 18.1255 1.69256 18.1255 2.19467 17.6234L9.909 9.90905C10.1501 9.66793 10.2857 9.341 10.2857 9C10.2857 8.659 10.1501 8.33207 9.909 8.09095L2.19467 0.376581Z" fill="var(--fill-0, #999FA5)"/>
</g>
</svg>
