<svg preserveAspectRatio="none" width="100%" height="100%" overflow="visible" style="display: block;" viewBox="0 0 19.9756 19.9756" fill="none" xmlns="http://www.w3.org/2000/svg">
<path id="Union" d="M10.4082 0C10.5911 2.57575e-05 10.7698 0.0158393 10.9443 0.0458984C16.0117 0.527437 19.9756 4.79477 19.9756 9.98828C19.9753 15.1815 16.0115 19.4472 10.9443 19.9287C10.7698 19.9588 10.5912 19.9756 10.4082 19.9756C10.346 19.9756 10.2839 19.9733 10.2227 19.9697C10.1447 19.9715 10.0666 19.9756 9.98828 19.9756C4.47228 19.9756 0.000276966 15.5042 0 9.98828C0 4.47211 4.47211 0 9.98828 0C10.0666 3.45858e-06 10.1447 0.00308441 10.2227 0.00488281C10.2839 0.00131552 10.346 0 10.4082 0ZM14.1035 12.4395C12.8573 12.7003 11.4634 12.8379 9.9873 12.8379C8.82898 12.8379 7.73209 12.7234 6.72266 12.5176C6.93412 13.9382 7.31696 15.1934 7.8125 16.1846C8.5677 17.6949 9.47171 18.3993 10.2783 18.4678C10.4305 18.4627 10.5814 18.4535 10.7314 18.4404C11.4866 18.283 12.3078 17.5749 13.0029 16.1846C13.5076 15.1753 13.8943 13.8922 14.1035 12.4395ZM1.5 9.98828C1.50022 13.6794 3.85697 16.8189 7.14746 17.9873C6.89818 17.6378 6.67152 17.2571 6.4707 16.8555C5.81853 15.551 5.35923 13.9126 5.15625 12.1016C4.47802 11.8772 3.85598 11.6101 3.30273 11.3047C2.60636 10.9203 1.9869 10.4558 1.50098 9.93164C1.50085 9.95046 1.5 9.96943 1.5 9.98828ZM18.459 10.4951C17.9688 10.9377 17.3671 11.3128 16.7051 11.6152C16.3805 11.7634 16.0338 11.8981 15.668 12.0205C15.4695 13.8638 15.0067 15.5316 14.3447 16.8555C14.2404 17.0641 14.1283 17.2668 14.0107 17.4629C16.5288 16.1049 18.2811 13.5121 18.459 10.4951ZM10.2676 1.50684C9.46362 1.58055 8.56441 2.2872 7.8125 3.79102C7.03893 5.33816 6.53906 7.5285 6.53906 9.98828C6.53907 10.3123 6.54761 10.6316 6.56445 10.9453C7.58507 11.1924 8.73778 11.3378 9.9873 11.3379C11.5804 11.3379 13.0294 11.1664 14.2549 10.8662C14.2691 10.5779 14.2773 10.2851 14.2773 9.98828C14.2773 7.52861 13.7764 5.33815 13.0029 3.79102C12.3077 2.40075 11.4866 1.69154 10.7314 1.53418C10.5779 1.52085 10.4233 1.51188 10.2676 1.50684ZM7.14746 1.9873C4.67088 2.86674 2.7242 4.86342 1.91211 7.37109C1.91625 7.40299 1.91992 7.43573 1.91992 7.46875C1.92017 8.21624 2.54777 9.17394 4.02832 9.99121C4.33799 10.1621 4.67787 10.3204 5.04395 10.4658C5.04007 10.3075 5.03907 10.1483 5.03906 9.98828C5.03906 7.34612 5.57255 4.91644 6.4707 3.12012C6.67164 2.71825 6.89801 2.33696 7.14746 1.9873ZM14.0107 2.51172C14.1284 2.708 14.2403 2.91128 14.3447 3.12012C15.2428 4.91642 15.7773 7.34622 15.7773 9.98828C15.7773 10.1207 15.7742 10.2525 15.7715 10.3838C15.8778 10.3404 15.9816 10.2968 16.082 10.251C17.5715 9.57063 18.2021 8.73044 18.2217 7.92676C17.6377 5.58648 16.0843 3.62998 14.0107 2.51172Z" fill="var(--fill-0, #1A1A1A)"/>
</svg>
